HIERARCHY
ROOT hip
{
  OFFSET 0 0 0
  CHANNELS 6 Xposition Yposition Zposition Zrotation Yrotation Xrotation
  JOINT abdomen
  {
    OFFSET 0 20.6881 -0.73152
    CHANNELS 3 Zrotation Xrotation Yrotation
    JOINT chest
    {
      OFFSET 0 11.7043 -0.48768
      CHANNELS 3 Zrotation Xrotation Yrotation
      JOINT neck
      {
        OFFSET 0 22.1894 -2.19456
        CHANNELS 3 Zrotation Xrotation Yrotation
        JOINT head
        {
          OFFSET -0.24384 7.07133 1.2192
          CHANNELS 3 Zrotation Xrotation Yrotation
          JOINT leftEye
          {
            OFFSET 4.14528 8.04674 8.04672
            CHANNELS 3 Zrotation Xrotation Yrotation
            End Site
            {
              OFFSET 1 0 0
            }
          }
          JOINT rightEye
          {
            OFFSET -3.6576 8.04674 8.04672
            CHANNELS 3 Zrotation Xrotation Yrotation
            End Site
            {
              OFFSET 1 0 0
            }
          }
        }
      }
      JOINT rCollar
      {
        OFFSET -2.68224 19.2634 -4.8768
        CHANNELS 3 Zrotation Xrotation Yrotation
        JOINT rShldr
        {
          OFFSET -8.77824 -1.95073 1.46304
          CHANNELS 3 Zrotation Xrotation Yrotation
          JOINT rForeArm
          {
            OFFSET -28.1742 -1.7115 0.48768
            CHANNELS 3 Zrotation Xrotation Yrotation
            JOINT rHand
            {
              OFFSET -22.5879 0.773209 7.07136
              CHANNELS 3 Zrotation Xrotation Yrotation
              JOINT rThumb1
              {
                OFFSET -1.2192 -0.487915 3.41376
                CHANNELS 3 Zrotation Xrotation Yrotation
                JOINT rThumb2
                {
                  OFFSET -3.37035 -0.52449 3.41376
                  CHANNELS 3 Zrotation Xrotation Yrotation
                  End Site
                  {
                    OFFSET -1.78271 -1.18214 1.43049
                  }
                }
              }
              JOINT rIndex1
              {
                OFFSET -7.75947 0.938293 5.60832
                CHANNELS 3 Zrotation Xrotation Yrotation
                JOINT rIndex2
                {
                  OFFSET -2.54057 -0.884171 1.56538
                  CHANNELS 3 Zrotation Xrotation Yrotation
                  End Site
                  {
                    OFFSET -1.62519 -0.234802 1.16502
                  }
                }
              }
              JOINT rMid1
              {
                OFFSET -8.24714 1.18213 3.41376
                CHANNELS 3 Zrotation Xrotation Yrotation
                JOINT rMid2
                {
                  OFFSET -3.10165 -0.590103 1.0647
                  CHANNELS 3 Zrotation Xrotation Yrotation
                  End Site
                  {
                    OFFSET -2.48547 -0.328903 0.83742
                  }
                }
              }
              JOINT rRing1
              {
                OFFSET -8.82822 0.546677 1.51678
                CHANNELS 3 Zrotation Xrotation Yrotation
                JOINT rRing2
                {
                  OFFSET -2.60934 -0.819778 -0.0198488
                  CHANNELS 3 Zrotation Xrotation Yrotation
                  End Site
                  {
                    OFFSET -2.33842 -0.294052 0.168128
                  }
                }
              }
              JOINT rPinky1
              {
                OFFSET -8.27202 -0.0477905 -0.4584
                CHANNELS 3 Zrotation Xrotation Yrotation
                JOINT rPinky2
                {
                  OFFSET -1.82734 -0.647385 -0.700984
                  CHANNELS 3 Zrotation Xrotation Yrotation
                  End Site
                  {
                    OFFSET -1.69225 -0.51767 -0.607171
                  }
                }
              }
            }
          }
        }
      }
      JOINT lCollar
      {
        OFFSET 2.68224 19.2634 -4.8768
        CHANNELS 3 Zrotation Xrotation Yrotation
        JOINT lShldr
        {
          OFFSET 8.77824 -1.95073 1.46304
          CHANNELS 3 Zrotation Xrotation Yrotation
          JOINT lForeArm
          {
            OFFSET 28.1742 -1.7115 0.48768
            CHANNELS 3 Zrotation Xrotation Yrotation
            JOINT lHand
            {
              OFFSET 22.5879 0.773209 7.07136
              CHANNELS 3 Zrotation Xrotation Yrotation
              JOINT lThumb1
              {
                OFFSET 1.2192 -0.487915 3.41376
                CHANNELS 3 Zrotation Xrotation Yrotation
                JOINT lThumb2
                {
                  OFFSET 3.37035 -0.52449 3.41376
                  CHANNELS 3 Zrotation Xrotation Yrotation
                  End Site
                  {
                    OFFSET 1.78271 -1.18214 1.43049
                  }
                }
              }
              JOINT lIndex1
              {
                OFFSET 7.75947 0.938293 5.60832
                CHANNELS 3 Zrotation Xrotation Yrotation
                JOINT lIndex2
                {
                  OFFSET 2.54057 -0.884171 1.56538
                  CHANNELS 3 Zrotation Xrotation Yrotation
                  End Site
                  {
                    OFFSET 1.62519 -0.234802 1.16502
                  }
                }
              }
              JOINT lMid1
              {
                OFFSET 8.24714 1.18213 3.41376
                CHANNELS 3 Zrotation Xrotation Yrotation
                JOINT lMid2
                {
                  OFFSET 3.10165 -0.590103 1.0647
                  CHANNELS 3 Zrotation Xrotation Yrotation
                  End Site
                  {
                    OFFSET 2.48547 -0.328903 0.83742
                  }
                }
              }
              JOINT lRing1
              {
                OFFSET 8.82822 0.546677 1.51678
                CHANNELS 3 Zrotation Xrotation Yrotation
                JOINT lRing2
                {
                  OFFSET 2.60934 -0.819778 -0.0198488
                  CHANNELS 3 Zrotation Xrotation Yrotation
                  End Site
                  {
                    OFFSET 2.33842 -0.294052 0.168128
                  }
                }
              }
              JOINT lPinky1
              {
                OFFSET 8.27202 -0.0477905 -0.4584
                CHANNELS 3 Zrotation Xrotation Yrotation
                JOINT lPinky2
                {
                  OFFSET 1.82734 -0.647385 -0.700984
                  CHANNELS 3 Zrotation Xrotation Yrotation
                  End Site
                  {
                    OFFSET 1.69225 -0.51767 -0.607171
                  }
                }
              }
            }
          }
        }
      }
    }
  }
  JOINT rButtock
  {
    OFFSET -8.77824 4.35084 1.2192
    CHANNELS 3 Zrotation Xrotation Yrotation
    JOINT rThigh
    {
      OFFSET 0 -1.70687 -2.19456
      CHANNELS 3 Zrotation Xrotation Yrotation
      JOINT rShin
      {
        OFFSET 0 -36.8199 0.73152
        CHANNELS 3 Zrotation Xrotation Yrotation
        JOINT rFoot
        {
          OFFSET 0.73152 -45.1104 -5.12064
          CHANNELS 3 Zrotation Xrotation Yrotation
          End Site
          {
            OFFSET -1.1221 -3.69964 12.103
          }
        }
      }
    }
  }
  JOINT lButtock
  {
    OFFSET 8.77824 4.35084 1.2192
    CHANNELS 3 Zrotation Xrotation Yrotation
    JOINT lThigh
    {
      OFFSET 0 -1.70687 -2.19456
      CHANNELS 3 Zrotation Xrotation Yrotation
      JOINT lShin
      {
        OFFSET 0 -36.8199 0.73152
        CHANNELS 3 Zrotation Xrotation Yrotation
        JOINT lFoot
        {
          OFFSET -0.73152 -45.1104 -5.12064
          CHANNELS 3 Zrotation Xrotation Yrotation
          End Site
          {
            OFFSET 1.1221 -3.69964 12.103
          }
        }
      }
    }
  }
}
MOTION
Frames:	4
Frame Time:	0.00833333
-47.532 82.4335 32.3045 -31.2175 79.34 -16.1351 0.586357 10.7419 0.961885 4.53036 2.57646 0.343659 1.96945 4.1352 0.0478245 -9.73993 31.8526 6.62681 -0.0 0.0 0.0 -0.0 0.0 0.0 -1.57376e-13 -2.22133e-13 2.3382e-13 28.5626 61.3713 57.3091 -22.7204 -16.8786 45.7838 -9.41248 -62.2849 -15.5167 -2.01671e-09 -5.81585e-10 -3.81555e-10 -3.44728e-09 -1.27299e-09 -7.50058e-10 -2.01671e-09 -5.81584e-10 -3.81565e-10 7.73091 5.47488 0.417314 -2.01672e-09 -5.81584e-10 -3.81565e-10 2.90554 0.965183 0.102902 -2.01671e-09 -5.81585e-10 -3.81558e-10 10.2786 0.731801 0.0259123 -2.01672e-09 -5.81586e-10 -3.81549e-10 2.22167 -0.733487 -0.20892 -1.57509e-13 -2.22151e-13 2.33622e-13 -24.4177 61.5458 -70.512 21.7243 -15.3486 -43.0506 9.2904 -62.0787 15.3787 5.17984e-11 3.45933e-09 -2.27583e-09 1.97429e-10 5.98436e-09 -3.90988e-09 5.17957e-11 3.45933e-09 -2.27582e-09 -7.73091 5.47488 -0.417314 5.18e-11 3.45931e-09 -2.27584e-09 -2.90554 0.965183 -0.102902 5.17946e-11 3.45933e-09 -2.27583e-09 -10.2786 0.731801 -0.0259123 5.18037e-11 3.45933e-09 -2.27584e-09 -2.22167 -0.733487 0.20892 -2.03217e-16 0.0 -3.88251e-19 -3.75044 -33.4243 2.07196 -0.161127 24.6715 0.350722 -0.49646 -1.46597 -1.90141 2.03217e-16 0.0 3.88251e-19 15.7757 -32.4663 7.65616 0.102619 31.4703 -0.686851 0.264324 -8.58162 0.923765
-47.5322 82.4385 32.2846 -30.9683 79.3848 -15.8751 0.570614 10.7207 0.963784 4.53044 2.58601 0.343169 1.95526 4.13006 0.0484626 -9.71419 31.8506 6.62282 -0.0 0.0 0.0 -0.0 0.0 0.0 -1.28486e-13 -4.45078e-13 2.32606e-13 28.5122 61.3863 57.3703 -22.7268 -16.889 45.8021 -9.43697 -62.3259 -15.5444 -1.81839e-09 -4.26578e-10 -2.37959e-10 -3.11495e-09 -9.8835e-10 -4.93701e-10 -1.81839e-09 -4.26575e-10 -2.37974e-10 7.73091 5.47488 0.417314 -1.81839e-09 -4.26575e-10 -2.37967e-10 2.90554 0.965183 0.102902 -1.81838e-09 -4.26577e-10 -2.3796e-10 10.2786 0.731801 0.0259123 -1.81839e-09 -4.26578e-10 -2.37951e-10 2.22167 -0.733487 -0.20892 -1.28613e-13 -4.45091e-13 2.32379e-13 -24.3792 61.5508 -70.4949 21.737 -15.3674 -43.0845 9.3437 -62.1693 15.439 -1.24438e-11 3.06959e-09 -2.03276e-09 7.49446e-11 5.32372e-09 -3.49534e-09 -1.24466e-11 3.06959e-09 -2.03275e-09 -7.73091 5.47488 -0.417314 -1.2442e-11 3.06958e-09 -2.03277e-09 -2.90554 0.965183 -0.102902 -1.24479e-11 3.06959e-09 -2.03276e-09 -10.2786 0.731801 -0.0259123 -1.24377e-11 3.06959e-09 -2.03277e-09 -2.22167 -0.733487 0.20892 -2.03217e-16 0.0 -3.88251e-19 -3.75649 -33.4288 2.10283 -0.161527 24.6626 0.34995 -0.501855 -1.46995 -1.94961 2.03217e-16 0.0 3.88251e-19 15.7554 -32.4737 7.6406 0.102289 31.4546 -0.686399 0.267955 -8.58243 0.943542
-47.5381 82.4412 32.28 -31.0599 79.4002 -15.9355 0.542921 10.6967 0.949224 4.52802 2.61054 0.337154 1.93644 4.13506 0.0621556 -9.69243 31.821 6.64061 -0.0 0.0 0.0 -0.0 0.0 0.0 -7.35398e-14 -6.66368e-13 2.02164e-13 28.4114 61.4002 57.49 -22.7318 -16.897 45.8163 -9.47798 -62.3942 -15.5907 -1.11768e-09 -1.6847e-10 -5.54057e-11 -1.92189e-09 -4.62246e-10 -1.46786e-10 -1.11768e-09 -1.68464e-10 -5.54267e-11 7.73091 5.47488 0.417314 -1.11768e-09 -1.68467e-10 -5.54088e-11 2.90554 0.965183 0.102902 -1.11767e-09 -1.68468e-10 -5.54036e-11 10.2786 0.731801 0.0259123 -1.11768e-09 -1.6847e-10 -5.53941e-11 2.22167 -0.733487 -0.20892 -7.36651e-14 -6.66372e-13 2.01884e-13 -24.3348 61.5412 -70.4616 21.7546 -15.3931 -43.1312 9.41603 -62.2911 15.5208 -2.35892e-10 1.79833e-09 -1.23796e-09 -3.48433e-10 3.16957e-09 -2.13985e-09 -2.35895e-10 1.79833e-09 -1.23794e-09 -7.73091 5.47488 -0.417314 -2.35889e-10 1.79832e-09 -1.23796e-09 -2.90554 0.965183 -0.102902 -2.35897e-10 1.79833e-09 -1.23796e-09 -10.2786 0.731801 -0.0259123 -2.35884e-10 1.79833e-09 -1.23796e-09 -2.22167 -0.733487 0.20892 -2.03217e-16 0.0 -3.88251e-19 -3.78157 -33.4348 2.12745 -0.16164 24.6614 0.34906 -0.507727 -1.48932 -2.00284 2.03217e-16 0.0 3.88251e-19 15.7171 -32.471 7.62853 0.1019 31.4292 -0.68578 0.273074 -8.59371 0.974038
-47.5419 82.4432 32.2755 -31.1447 79.41 -15.9967 0.508448 10.6723 0.928004 4.52335 2.63746 0.328972 1.92373 4.14848 0.0772062 -9.67965 31.7773 6.66042 -0.0 0.0 0.0 -0.0 0.0 0.0 -1.59837e-14 -8.41269e-13 1.62528e-13 28.3282 61.4097 57.6035 -22.7332 -16.8992 45.82 -9.51403 -62.4539 -15.6313 -2.72327e-10 7.716e-11 9.10458e-11 -4.78303e-10 6.34697e-11 1.44806e-10 -2.72328e-10 7.71683e-11 9.10183e-11 7.73091 5.47488 0.417314 -2.72329e-10 7.71622e-11 9.10467e-11 2.90554 0.965183 0.102902 -2.7232e-10 7.7162e-11 9.10507e-11 10.2786 0.731801 0.0259123 -2.72326e-10 7.716e-11 9.10603e-11 2.22167 -0.733487 -0.20892 -1.61086e-14 -8.41265e-13 1.62199e-13 -24.2847 61.531 -70.4337 21.7718 -15.4184 -43.177 9.48687 -62.409 15.6007 -5.10881e-10 3.07159e-10 -3.06575e-10 -8.67067e-10 6.44821e-10 -5.5194e-10 -5.10884e-10 3.07158e-10 -3.06557e-10 -7.73091 5.47488 -0.417314 -5.10878e-10 3.07156e-10 -3.06576e-10 -2.90554 0.965183 -0.102902 -5.10886e-10 3.07159e-10 -3.06575e-10 -10.2786 0.731801 -0.0259123 -5.10872e-10 3.0716e-10 -3.0658e-10 -2.22167 -0.733487 0.20892 -2.03217e-16 0.0 -3.88251e-19 -3.82731 -33.4417 2.13763 -0.161528 24.6651 0.348356 -0.513266 -1.51297 -2.05335 2.03217e-16 0.0 3.88251e-19 15.66 -32.4686 7.60872 0.101497 31.399 -0.685002 0.277961 -8.60426 1.00284
